<?xml version="1.0" encoding="UTF-8" standalone="no"?>
<!-- Created with Inkscape (http://www.inkscape.org/) -->

<svg
   xmlns:dc="http://purl.org/dc/elements/1.1/"
   xmlns:cc="http://creativecommons.org/ns#"
   xmlns:rdf="http://www.w3.org/1999/02/22-rdf-syntax-ns#"
   xmlns:svg="http://www.w3.org/2000/svg"
   xmlns="http://www.w3.org/2000/svg"
   xmlns:sodipodi="http://sodipodi.sourceforge.net/DTD/sodipodi-0.dtd"
   xmlns:inkscape="http://www.inkscape.org/namespaces/inkscape"
   width="744.09448819"
   height="1052.3622047"
   id="svg2"
   version="1.1"
   inkscape:version="0.47 r22583"
   sodipodi:docname="New document 1">
  <defs
     id="defs4">
    <inkscape:perspective
       sodipodi:type="inkscape:persp3d"
       inkscape:vp_x="0 : 526.18109 : 1"
       inkscape:vp_y="0 : 1000 : 0"
       inkscape:vp_z="744.09448 : 526.18109 : 1"
       inkscape:persp3d-origin="372.04724 : 350.78739 : 1"
       id="perspective10" />
    <inkscape:perspective
       id="perspective2840"
       inkscape:persp3d-origin="0.5 : 0.33333333 : 1"
       inkscape:vp_z="1 : 0.5 : 1"
       inkscape:vp_y="0 : 1000 : 0"
       inkscape:vp_x="0 : 0.5 : 1"
       sodipodi:type="inkscape:persp3d" />
    <inkscape:perspective
       id="perspective2872"
       inkscape:persp3d-origin="0.5 : 0.33333333 : 1"
       inkscape:vp_z="1 : 0.5 : 1"
       inkscape:vp_y="0 : 1000 : 0"
       inkscape:vp_x="0 : 0.5 : 1"
       sodipodi:type="inkscape:persp3d" />
    <inkscape:perspective
       id="perspective2940"
       inkscape:persp3d-origin="0.5 : 0.33333333 : 1"
       inkscape:vp_z="1 : 0.5 : 1"
       inkscape:vp_y="0 : 1000 : 0"
       inkscape:vp_x="0 : 0.5 : 1"
       sodipodi:type="inkscape:persp3d" />
    <inkscape:perspective
       id="perspective2962"
       inkscape:persp3d-origin="0.5 : 0.33333333 : 1"
       inkscape:vp_z="1 : 0.5 : 1"
       inkscape:vp_y="0 : 1000 : 0"
       inkscape:vp_x="0 : 0.5 : 1"
       sodipodi:type="inkscape:persp3d" />
    <inkscape:perspective
       id="perspective3801"
       inkscape:persp3d-origin="0.5 : 0.33333333 : 1"
       inkscape:vp_z="1 : 0.5 : 1"
       inkscape:vp_y="0 : 1000 : 0"
       inkscape:vp_x="0 : 0.5 : 1"
       sodipodi:type="inkscape:persp3d" />
    <inkscape:perspective
       id="perspective3825"
       inkscape:persp3d-origin="0.5 : 0.33333333 : 1"
       inkscape:vp_z="1 : 0.5 : 1"
       inkscape:vp_y="0 : 1000 : 0"
       inkscape:vp_x="0 : 0.5 : 1"
       sodipodi:type="inkscape:persp3d" />
    <inkscape:perspective
       id="perspective3825-3"
       inkscape:persp3d-origin="0.5 : 0.33333333 : 1"
       inkscape:vp_z="1 : 0.5 : 1"
       inkscape:vp_y="0 : 1000 : 0"
       inkscape:vp_x="0 : 0.5 : 1"
       sodipodi:type="inkscape:persp3d" />
    <inkscape:perspective
       id="perspective3825-1"
       inkscape:persp3d-origin="0.5 : 0.33333333 : 1"
       inkscape:vp_z="1 : 0.5 : 1"
       inkscape:vp_y="0 : 1000 : 0"
       inkscape:vp_x="0 : 0.5 : 1"
       sodipodi:type="inkscape:persp3d" />
    <inkscape:perspective
       id="perspective3825-4"
       inkscape:persp3d-origin="0.5 : 0.33333333 : 1"
       inkscape:vp_z="1 : 0.5 : 1"
       inkscape:vp_y="0 : 1000 : 0"
       inkscape:vp_x="0 : 0.5 : 1"
       sodipodi:type="inkscape:persp3d" />
    <inkscape:perspective
       id="perspective3876"
       inkscape:persp3d-origin="0.5 : 0.33333333 : 1"
       inkscape:vp_z="1 : 0.5 : 1"
       inkscape:vp_y="0 : 1000 : 0"
       inkscape:vp_x="0 : 0.5 : 1"
       sodipodi:type="inkscape:persp3d" />
    <inkscape:perspective
       id="perspective3898"
       inkscape:persp3d-origin="0.5 : 0.33333333 : 1"
       inkscape:vp_z="1 : 0.5 : 1"
       inkscape:vp_y="0 : 1000 : 0"
       inkscape:vp_x="0 : 0.5 : 1"
       sodipodi:type="inkscape:persp3d" />
    <inkscape:perspective
       id="perspective3923"
       inkscape:persp3d-origin="0.5 : 0.33333333 : 1"
       inkscape:vp_z="1 : 0.5 : 1"
       inkscape:vp_y="0 : 1000 : 0"
       inkscape:vp_x="0 : 0.5 : 1"
       sodipodi:type="inkscape:persp3d" />
    <inkscape:perspective
       id="perspective3958"
       inkscape:persp3d-origin="0.5 : 0.33333333 : 1"
       inkscape:vp_z="1 : 0.5 : 1"
       inkscape:vp_y="0 : 1000 : 0"
       inkscape:vp_x="0 : 0.5 : 1"
       sodipodi:type="inkscape:persp3d" />
    <inkscape:perspective
       id="perspective3980"
       inkscape:persp3d-origin="0.5 : 0.33333333 : 1"
       inkscape:vp_z="1 : 0.5 : 1"
       inkscape:vp_y="0 : 1000 : 0"
       inkscape:vp_x="0 : 0.5 : 1"
       sodipodi:type="inkscape:persp3d" />
    <inkscape:perspective
       id="perspective4002"
       inkscape:persp3d-origin="0.5 : 0.33333333 : 1"
       inkscape:vp_z="1 : 0.5 : 1"
       inkscape:vp_y="0 : 1000 : 0"
       inkscape:vp_x="0 : 0.5 : 1"
       sodipodi:type="inkscape:persp3d" />
    <inkscape:perspective
       id="perspective4026"
       inkscape:persp3d-origin="0.5 : 0.33333333 : 1"
       inkscape:vp_z="1 : 0.5 : 1"
       inkscape:vp_y="0 : 1000 : 0"
       inkscape:vp_x="0 : 0.5 : 1"
       sodipodi:type="inkscape:persp3d" />
    <inkscape:perspective
       id="perspective4050"
       inkscape:persp3d-origin="0.5 : 0.33333333 : 1"
       inkscape:vp_z="1 : 0.5 : 1"
       inkscape:vp_y="0 : 1000 : 0"
       inkscape:vp_x="0 : 0.5 : 1"
       sodipodi:type="inkscape:persp3d" />
    <inkscape:perspective
       id="perspective4072"
       inkscape:persp3d-origin="0.5 : 0.33333333 : 1"
       inkscape:vp_z="1 : 0.5 : 1"
       inkscape:vp_y="0 : 1000 : 0"
       inkscape:vp_x="0 : 0.5 : 1"
       sodipodi:type="inkscape:persp3d" />
    <inkscape:perspective
       id="perspective4096"
       inkscape:persp3d-origin="0.5 : 0.33333333 : 1"
       inkscape:vp_z="1 : 0.5 : 1"
       inkscape:vp_y="0 : 1000 : 0"
       inkscape:vp_x="0 : 0.5 : 1"
       sodipodi:type="inkscape:persp3d" />
    <inkscape:perspective
       id="perspective4119"
       inkscape:persp3d-origin="0.5 : 0.33333333 : 1"
       inkscape:vp_z="1 : 0.5 : 1"
       inkscape:vp_y="0 : 1000 : 0"
       inkscape:vp_x="0 : 0.5 : 1"
       sodipodi:type="inkscape:persp3d" />
    <inkscape:perspective
       id="perspective4141"
       inkscape:persp3d-origin="0.5 : 0.33333333 : 1"
       inkscape:vp_z="1 : 0.5 : 1"
       inkscape:vp_y="0 : 1000 : 0"
       inkscape:vp_x="0 : 0.5 : 1"
       sodipodi:type="inkscape:persp3d" />
    <inkscape:perspective
       id="perspective4165"
       inkscape:persp3d-origin="0.5 : 0.33333333 : 1"
       inkscape:vp_z="1 : 0.5 : 1"
       inkscape:vp_y="0 : 1000 : 0"
       inkscape:vp_x="0 : 0.5 : 1"
       sodipodi:type="inkscape:persp3d" />
    <inkscape:perspective
       id="perspective4187"
       inkscape:persp3d-origin="0.5 : 0.33333333 : 1"
       inkscape:vp_z="1 : 0.5 : 1"
       inkscape:vp_y="0 : 1000 : 0"
       inkscape:vp_x="0 : 0.5 : 1"
       sodipodi:type="inkscape:persp3d" />
    <inkscape:perspective
       id="perspective4211"
       inkscape:persp3d-origin="0.5 : 0.33333333 : 1"
       inkscape:vp_z="1 : 0.5 : 1"
       inkscape:vp_y="0 : 1000 : 0"
       inkscape:vp_x="0 : 0.5 : 1"
       sodipodi:type="inkscape:persp3d" />
    <inkscape:perspective
       id="perspective4234"
       inkscape:persp3d-origin="0.5 : 0.33333333 : 1"
       inkscape:vp_z="1 : 0.5 : 1"
       inkscape:vp_y="0 : 1000 : 0"
       inkscape:vp_x="0 : 0.5 : 1"
       sodipodi:type="inkscape:persp3d" />
    <inkscape:perspective
       id="perspective4256"
       inkscape:persp3d-origin="0.5 : 0.33333333 : 1"
       inkscape:vp_z="1 : 0.5 : 1"
       inkscape:vp_y="0 : 1000 : 0"
       inkscape:vp_x="0 : 0.5 : 1"
       sodipodi:type="inkscape:persp3d" />
    <inkscape:perspective
       id="perspective4282"
       inkscape:persp3d-origin="0.5 : 0.33333333 : 1"
       inkscape:vp_z="1 : 0.5 : 1"
       inkscape:vp_y="0 : 1000 : 0"
       inkscape:vp_x="0 : 0.5 : 1"
       sodipodi:type="inkscape:persp3d" />
    <inkscape:perspective
       id="perspective4304"
       inkscape:persp3d-origin="0.5 : 0.33333333 : 1"
       inkscape:vp_z="1 : 0.5 : 1"
       inkscape:vp_y="0 : 1000 : 0"
       inkscape:vp_x="0 : 0.5 : 1"
       sodipodi:type="inkscape:persp3d" />
    <inkscape:perspective
       id="perspective4328"
       inkscape:persp3d-origin="0.5 : 0.33333333 : 1"
       inkscape:vp_z="1 : 0.5 : 1"
       inkscape:vp_y="0 : 1000 : 0"
       inkscape:vp_x="0 : 0.5 : 1"
       sodipodi:type="inkscape:persp3d" />
    <inkscape:perspective
       id="perspective4351"
       inkscape:persp3d-origin="0.5 : 0.33333333 : 1"
       inkscape:vp_z="1 : 0.5 : 1"
       inkscape:vp_y="0 : 1000 : 0"
       inkscape:vp_x="0 : 0.5 : 1"
       sodipodi:type="inkscape:persp3d" />
    <inkscape:perspective
       id="perspective4392"
       inkscape:persp3d-origin="0.5 : 0.33333333 : 1"
       inkscape:vp_z="1 : 0.5 : 1"
       inkscape:vp_y="0 : 1000 : 0"
       inkscape:vp_x="0 : 0.5 : 1"
       sodipodi:type="inkscape:persp3d" />
  </defs>
  <sodipodi:namedview
     id="base"
     pagecolor="#ffffff"
     bordercolor="#666666"
     borderopacity="1.0"
     inkscape:pageopacity="0.0"
     inkscape:pageshadow="2"
     inkscape:zoom="0.40995335"
     inkscape:cx="502.13674"
     inkscape:cy="898.08394"
     inkscape:document-units="px"
     inkscape:current-layer="layer1"
     showgrid="false"
     showguides="true"
     inkscape:guide-bbox="true"
     inkscape:window-width="1603"
     inkscape:window-height="1030"
     inkscape:window-x="0"
     inkscape:window-y="25"
     inkscape:window-maximized="0">
    <sodipodi:guide
       orientation="1,0"
       position="908.4507,895.77465"
       id="guide2830" />
    <sodipodi:guide
       orientation="1,0"
       position="201.23457,841.97531"
       id="guide2898" />
    <sodipodi:guide
       orientation="1,0"
       position="401.23457,806.17284"
       id="guide2900" />
    <sodipodi:guide
       orientation="1,0"
       position="600,779.01235"
       id="guide2902" />
    <sodipodi:guide
       orientation="0,1"
       position="280.24691,850.61728"
       id="guide2906" />
    <sodipodi:guide
       orientation="0,1"
       position="-27.160494,648.14815"
       id="guide2914" />
    <sodipodi:guide
       orientation="0,1"
       position="150.61728,444.44444"
       id="guide2916" />
    <sodipodi:guide
       orientation="0,1"
       position="274.07407,241.97531"
       id="guide2918" />
    <sodipodi:guide
       orientation="0,1"
       position="259.25926,38.271605"
       id="guide2920" />
    <sodipodi:guide
       orientation="1,0"
       position="500,734.15842"
       id="guide2922" />
    <sodipodi:guide
       orientation="1,0"
       position="800.09104,850.61728"
       id="guide4365" />
  </sodipodi:namedview>
  <metadata
     id="metadata7">
    <rdf:RDF>
      <cc:Work
         rdf:about="">
        <dc:format>image/svg+xml</dc:format>
        <dc:type
           rdf:resource="http://purl.org/dc/dcmitype/StillImage" />
        <dc:title></dc:title>
      </cc:Work>
    </rdf:RDF>
  </metadata>
  <g
     inkscape:label="Layer 1"
     inkscape:groupmode="layer"
     id="layer1">
    <rect
       style="fill:#e3d7f4;fill-opacity:1;stroke:none"
       id="rect2822"
       width="907.77252"
       height="1050.7911"
       x="0.67814326"
       y="1.6753408" />
    <path
       style="fill:none;stroke:#000000;stroke-width:0.3925623px;stroke-linecap:butt;stroke-linejoin:miter;stroke-opacity:1"
       d="m 499.75659,179.59065 -59.07233,0 c 0,0 0,1.10581 0,-12.71681 0,-13.82261 -12.1639,-47.5498 -12.1639,-47.5498 0,0 -7.18776,-24.88071 16.58714,-33.174277 23.7749,-8.293569 37.04461,9.952287 37.04461,9.952287 0,0 6.08195,8.29357 11.05809,13.82261 -0.5529,2.76453 -16.03423,-28.198132 -16.03423,-39.256227 0,-11.396507 2.85508,-16.248723 2.85508,-16.248723 0,0 4.70026,-6.172512 15.01479,-6.510929 l 0,-14.284957 0,0 -8.47049,0 0,-7.740665 8.47049,0 0,-8.846478 6.70045,0"
       id="path2826"
       sodipodi:nodetypes="ccscsccsccccccccc" />
    <path
       style="fill:none;stroke:#000000;stroke-width:0.3925623px;stroke-linecap:butt;stroke-linejoin:miter;stroke-opacity:1"
       d="m 499.23601,179.69551 57.50208,0 c 0,0 0,1.10581 0,-12.71681 0,-13.82261 12.16391,-47.5498 12.16391,-47.5498 0,0 7.18776,-24.88071 -16.58714,-33.174275 -23.7749,-8.29357 -37.04461,9.952285 -37.04461,9.952285 0,0 -6.08196,8.29357 -11.0581,13.82261 0.55291,2.76453 16.03424,-28.19813 16.03424,-39.256226 0,-11.396507 -2.85509,-16.248722 -2.85509,-16.248722 0,0 -4.70026,-6.172513 -15.01479,-6.510929 l 0,-14.284958 0,0 8.4705,0 0,-7.740665 -8.4705,0 0,-8.846478 -6.70044,0"
       id="path2826-7"
       sodipodi:nodetypes="ccscsccsccccccccc" />
    <path
       style="fill:#000000;fill-opacity:1;stroke:none"
       d="m 44.945269,173.19024 c 0,-3.81731 -0.03803,-7.61944 -0.08453,-8.44917 -0.0754,-1.34558 -0.06712,-1.39512 0.07659,-0.45843 0.08861,0.5776 0.169613,4.33677 0.18,8.3537 l 0.0189,7.30352 56.900611,0 56.90063,0 -0.0357,-6.25334 -0.0357,-6.25334 -0.12966,5.25089 c -0.0713,2.888 -0.14116,5.65904 -0.15521,6.15787 l -0.0255,0.90698 -56.59566,0 -56.59566,0 -0.09296,-8.25823 c -0.09731,-8.64472 -0.164822,-9.51139 -1.098831,-14.10522 -1.49291,-7.3427 -4.133751,-16.81938 -8.081321,-28.99986 -2.861139,-8.82822 -3.090169,-9.70191 -3.378636,-12.88857 -0.616988,-6.8157 1.019006,-13.50765 4.454907,-18.22256 4.608551,-6.324075 14.564416,-10.705095 24.327324,-10.705095 7.90005,0 15.86433,3.39538 21.70761,9.254515 0.85485,0.85717 3.57347,4.16266 6.0414,7.34554 6.68955,8.62752 6.74377,8.69337 7.21278,8.76073 0.7103,0.102 0.50987,-0.44283 -0.8874,-2.41217 -4.45756,-6.28261 -11.82964,-23.581825 -13.7139,-32.180835 -0.63608,-2.90282 -0.40014,-10.6078 0.44524,-14.54002 0.47163,-2.19377 1.39151,-4.79176 1.98836,-5.61569 1.43424,-1.97992 5.9061,-4.631 9.06881,-5.37633 0.52033,-0.12262 1.93418,-0.36893 3.14189,-0.54735 l 2.195827,-0.32439 0.05,-7.29083 0.05,-7.29083 -4.202987,0 -4.20299,0 0,-3.53243 0,-3.53242 4.20072,0 4.200717,0 0,-4.29619 0,-4.29618 2.62545,0.002 c 1.44399,0.001 2.94766,0.0554 3.34148,0.12045 l 0.71603,0.11835 0,4.27121 0,4.2712 4.10525,0 4.10524,0 0,3.43695 0,3.43695 -4.10524,0 -4.10525,0 0,7.35125 c 0,4.0432 0.0237,7.35126 0.0527,7.35126 0.66229,0 3.7464,0.51651 5.14457,0.86159 3.21598,0.79372 6.50044,2.58122 8.53511,4.64506 1.22478,1.24234 1.83275,2.61424 2.4675,5.56797 0.92506,4.30468 1.29196,10.66852 0.80913,14.03421 -0.74938,5.22372 -5.18596,17.1329 -9.86487,26.480405 -1.74097,3.47809 -2.80521,5.30492 -4.22227,7.24772 -0.66189,0.90746 -1.20344,1.78818 -1.20344,1.95716 0,0.31571 0.51187,0.41057 0.86927,0.16109 0.11053,-0.0772 1.35135,-1.64395 2.75738,-3.48176 6.07306,-7.93808 9.76747,-12.41723 11.43089,-13.85899 3.09264,-2.680505 7.08621,-5.081425 10.41427,-6.261025 3.21481,-1.13945 5.24585,-1.48404 9.37505,-1.59056 3.35353,-0.0865 4.12128,-0.0472 6.30108,0.32248 14.75826,2.50316 23.19941,11.748275 23.19941,25.409065 0,4.85617 -0.19804,5.75171 -3.62584,16.39594 -3.48035,10.8074 -4.95167,15.86053 -6.62002,22.73591 -1.54949,6.38556 -2.40384,11.36473 -2.32517,13.55115 l 0.0311,0.86495 0.1446,-1.05019 c 0.0976,-0.70893 0.11881,-0.33666 0.0652,1.14565 -0.0437,1.20771 -0.0798,4.83799 -0.0803,8.06729 l -7.8e-4,5.87146 -57.09156,0 -57.091558,0 0,-6.94056 z"
       id="path2862" />
    <path
       style="fill:#ffffff;fill-opacity:1;stroke:none"
       d="m 273.58032,179.33848 -28.8563,-0.12647 -0.2847,-8.44845 c -0.40894,-12.135 -1.91466,-19.16109 -8.64764,-40.35222 -4.29036,-13.50334 -4.11599,-12.72713 -4.10459,-18.27099 0.0106,-5.15012 0.7788,-8.35373 3.01695,-12.58138 5.06012,-9.558077 20.22024,-15.33791 32.26114,-12.299637 8.38017,2.11456 13.07241,5.50894 20.33485,14.710327 2.8253,3.57961 5.72752,7.3185 6.44938,8.30865 0.72186,0.99015 1.5254,1.80028 1.78566,1.80028 0.81227,0 0.51846,-1.23995 -0.51554,-2.17572 -1.32567,-1.19971 -3.64331,-5.43021 -6.76456,-12.34765 -5.06503,-11.225327 -7.96051,-20.52932 -7.96051,-25.57939 0,-5.70333 1.65634,-13.44456 3.27537,-15.30808 2.23622,-2.57392 7.23699,-4.9395 11.55637,-5.46667 l 2.54867,-0.31106 0.13113,-7.49976 0.13114,-7.49977 -4.29767,0 -4.29767,0 0,-3.33322 0,-3.33324 4.28558,0 4.28558,0 0,-4.28557 0,-4.28558 3.09515,0 3.09514,0 0,4.28558 0,4.28557 4.28558,0 4.28558,0 0,3.33324 0,3.33322 -4.28558,0 -4.28558,0 0,7.55219 0,7.55219 2.49992,0.26217 c 3.51316,0.36842 7.58042,2.0069 10.28118,4.14173 1.95104,1.54221 2.42121,2.24686 3.07471,4.60813 2.8296,10.22398 2.23721,16.54702 -2.76214,29.482233 -2.88409,7.462237 -7.81741,17.600927 -9.69124,19.916917 -1.5256,1.88559 -1.83932,2.67254 -1.0654,2.67254 0.23778,0 3.07697,-3.3734 6.30933,-7.49644 8.09909,-10.33085 10.52112,-12.550317 16.73978,-15.339847 4.35506,-1.95356 7.65376,-2.62452 12.7079,-2.58479 8.24669,0.0648 16.19914,3.08266 21.18842,8.040657 4.90577,4.87501 6.91379,9.98294 6.94402,17.66387 0.0208,5.27879 0.10352,4.90079 -3.63819,16.62078 -6.89264,21.58952 -8.75842,30.17944 -9.12751,42.02249 l -0.27083,8.6902 -27.42828,-0.11528 c -15.08556,-0.0634 -40.41363,-0.1722 -56.2846,-0.24175 l 0,0 z"
       id="path2886" />
    <path
       style="fill:none;stroke:#000000;stroke-width:1.06153321px;stroke-linecap:butt;stroke-linejoin:miter;stroke-opacity:1"
       d="m 499.97796,377.42053 -56.92441,0 15.83983,-21.20056 -16.33483,-18.41101 -21.77978,-60.81213 5.44494,-5.57908 40.58959,41.28528 -11.38488,-61.92793 5.93993,-3.34746 27.71972,56.90676 5.93994,-62.57511 4.94995,0"
       id="path2924"
       sodipodi:nodetypes="cccccccccccc" />
    <path
       style="fill:#000000;fill-opacity:1;stroke:none"
       d="m 101.7073,231.125 c -5.331458,0 -9.656248,4.32479 -9.656248,9.65625 0,3.7151 2.11108,6.91728 5.1875,8.53125 l -0.1875,1.53125 c -0.16212,1.29332 -1.5668,15.58076 -3.09375,31.78125 -1.52696,16.2005 -2.86249,29.57405 -2.96875,29.6875 -0.10627,0.11345 -0.25135,0.11345 -0.34375,0 -0.09238,-0.11345 -6.359,-12.9177 -13.90625,-28.4375 -5.77769,-11.88098 -10.79625,-22.10411 -12.96875,-26.40625 2.85601,-1.67658 4.78125,-4.7614 4.78125,-8.3125 0,-5.33146 -4.32479,-9.65625 -9.65625,-9.65625 -0.32281,0 -0.65407,3e-4 -0.96875,0.0312 -0.01013,-0.001 -0.02111,0.001 -0.03125,0 -0.31468,-0.0309 -0.64594,-0.0312 -0.96875,-0.0312 -5.33146,0 -9.65625,4.32479 -9.65625,9.65625 0,5.33146 4.32479,9.65625 9.65625,9.65625 0.32284,0 0.65404,-0.0315 0.96875,-0.0625 0.0101,0.001 0.02114,-9.9e-4 0.03125,0 0.06067,0.006 0.12651,-0.005 0.1875,0 0.17158,1.12649 2.66757,14.74741 5.6875,31.0625 3.07431,16.60891 5.47025,30.30136 5.34375,30.4375 -0.1265,0.13614 -9.50462,-9.16286 -20.84375,-20.6875 l -19.03125,-19.34375 c 1.33491,-1.65586 2.15625,-3.76997 2.15625,-6.0625 0,-5.33146 -4.32479,-9.65625 -9.65625,-9.65625 -5.33146,0 -9.65625,4.32479 -9.65625,9.65625 0,5.33146 4.32479,9.65625 9.65625,9.65625 0.61236,0 1.20054,-0.0472 1.78125,-0.15625 0.6401,2.99322 20.91019,58.82467 21.84375,60.125 0.58644,0.81683 4.38176,5.2162 8.4375,9.78125 4.67632,5.26357 7.26909,8.57431 7.09375,9.03125 -0.20827,0.54274 -10.76435,14.87958 -14.3125,19.4375 -0.38474,0.49424 10.66146,0.59375 54.843748,0.59375 44.18228,0 55.22849,-0.0995 54.84375,-0.59375 -3.55041,-4.56083 -14.13527,-18.89423 -14.34375,-19.4375 -0.1761,-0.45892 2.51836,-3.84311 7.375,-9.28125 4.19813,-4.70079 7.99505,-9.10055 8.4375,-9.78125 0.80939,-1.24524 20.77763,-56.64512 21.5625,-59.78125 0.28514,0.0253 0.58328,0.0625 0.875,0.0625 5.33146,0 9.65625,-4.32479 9.65625,-9.65625 0,-5.33146 -4.32479,-9.65625 -9.65625,-9.65625 -5.33146,0 -9.65625,4.32479 -9.65625,9.65625 0,2.54662 0.98256,4.83752 2.59375,6.5625 l -18.53125,18.84375 c -11.3366,11.5207 -20.72323,20.82364 -20.84375,20.6875 -0.12052,-0.13614 2.27555,-13.82859 5.34375,-30.4375 3.00915,-16.28923 5.51125,-29.87917 5.6875,-31.03125 0.0831,0.002 0.16637,0.0312 0.25,0.0312 5.33146,0 9.65625,-4.32479 9.65625,-9.65625 0,-5.33146 -4.32479,-9.65625 -9.65625,-9.65625 -5.33146,0 -9.65625,4.32479 -9.65625,9.65625 0,3.16556 1.52103,5.95832 3.875,7.71875 l -12.8125,26.4375 c -7.69703,15.83096 -14.0885,28.88655 -14.1875,29 -0.099,0.11345 -0.27178,0.11345 -0.375,0 -0.10322,-0.11345 -1.43094,-13.68347 -2.96875,-30.15625 -1.53781,-16.47277 -2.94105,-30.79146 -3.09375,-31.8125 l -0.0937,-0.8125 c 3.31386,-1.529 5.625,-4.86087 5.625,-8.75 0,-5.33146 -4.32479,-9.65625 -9.65625,-9.65625 z"
       id="path2928-8-6-3-8" />
    <path
       sodipodi:type="arc"
       style="fill:#ffffff;fill-opacity:1;stroke:none"
       id="path2928-8-6"
       sodipodi:cx="458.91089"
       sodipodi:cy="266.71863"
       sodipodi:rx="12.376238"
       sodipodi:ry="12.376238"
       d="m 471.28713,266.71863 a 12.376238,12.376238 0 1 1 -24.75248,0 12.376238,12.376238 0 1 1 24.75248,0 z"
       transform="matrix(0.8,0,0,0.8,132.87129,422.5223)" />
    <path
       sodipodi:nodetypes="cccccccccccc"
       id="path2976"
       d="m 499.97796,377.42053 56.92442,0 -15.83984,-21.20056 16.33483,-18.41101 21.77978,-60.81213 -5.44494,-5.57908 -40.58958,41.28528 11.38487,-61.92793 -5.93992,-3.34746 -27.71973,56.90676 -5.93993,-62.57511 -4.94996,0"
       style="fill:none;stroke:#000000;stroke-width:1.06153321px;stroke-linecap:butt;stroke-linejoin:miter;stroke-opacity:1" />
    <path
       style="fill:#ffffff;fill-opacity:1;stroke:none"
       d="m 302.28593,231.06765 c -5.33146,0 -9.65625,4.32479 -9.65625,9.65625 0,3.7151 2.11108,6.91728 5.1875,8.53125 l -0.1875,1.53125 c -0.16212,1.29332 -1.5668,15.58076 -3.09375,31.78125 -1.52696,16.2005 -2.86249,29.57405 -2.96875,29.6875 -0.10627,0.11345 -0.25135,0.11345 -0.34375,0 -0.0924,-0.11345 -6.359,-12.9177 -13.90625,-28.4375 -5.77769,-11.88098 -10.79625,-22.10411 -12.96875,-26.40625 2.85601,-1.67658 4.78125,-4.7614 4.78125,-8.3125 0,-5.33146 -4.32479,-9.65625 -9.65625,-9.65625 -0.32281,0 -0.65407,3e-4 -0.96875,0.0312 -0.0101,-0.001 -0.0211,0.001 -0.0312,0 -0.31468,-0.0309 -0.64594,-0.0312 -0.96875,-0.0312 -5.33146,0 -9.65625,4.32479 -9.65625,9.65625 0,5.33146 4.32479,9.65625 9.65625,9.65625 0.32284,0 0.65404,-0.0315 0.96875,-0.0625 0.0101,10e-4 0.0211,-9.9e-4 0.0312,0 0.0607,0.006 0.12651,-0.005 0.1875,0 0.17158,1.12649 2.66757,14.74741 5.6875,31.0625 3.07431,16.60891 5.47025,30.30136 5.34375,30.4375 -0.1265,0.13614 -9.50462,-9.16286 -20.84375,-20.6875 L 229.84843,280.1614 c 1.33491,-1.65586 2.15625,-3.76997 2.15625,-6.0625 0,-5.33146 -4.32479,-9.65625 -9.65625,-9.65625 -5.33146,0 -9.65625,4.32479 -9.65625,9.65625 0,5.33146 4.32479,9.65625 9.65625,9.65625 0.61236,0 1.20054,-0.0472 1.78125,-0.15625 0.6401,2.99322 20.91019,58.82467 21.84375,60.125 0.58644,0.81683 4.38176,5.2162 8.4375,9.78125 4.67632,5.26357 7.26909,8.57431 7.09375,9.03125 -0.20827,0.54274 -10.76435,14.87958 -14.3125,19.4375 -0.38474,0.49424 10.66146,0.59375 54.84375,0.59375 44.18228,0 55.22849,-0.0995 54.84375,-0.59375 -3.55041,-4.56083 -14.13527,-18.89423 -14.34375,-19.4375 -0.1761,-0.45892 2.51836,-3.84311 7.375,-9.28125 4.19813,-4.70079 7.99505,-9.10055 8.4375,-9.78125 0.80939,-1.24524 20.77763,-56.64512 21.5625,-59.78125 0.28514,0.0253 0.58328,0.0625 0.875,0.0625 5.33146,0 9.65625,-4.32479 9.65625,-9.65625 0,-5.33146 -4.32479,-9.65625 -9.65625,-9.65625 -5.33146,0 -9.65625,4.32479 -9.65625,9.65625 0,2.54662 0.98256,4.83752 2.59375,6.5625 l -18.53125,18.84375 c -11.3366,11.5207 -20.72323,20.82364 -20.84375,20.6875 -0.12052,-0.13614 2.27555,-13.82859 5.34375,-30.4375 3.00915,-16.28923 5.51125,-29.87917 5.6875,-31.03125 0.0831,0.002 0.16637,0.0312 0.25,0.0312 5.33146,0 9.65625,-4.32479 9.65625,-9.65625 0,-5.33146 -4.32479,-9.65625 -9.65625,-9.65625 -5.33146,0 -9.65625,4.32479 -9.65625,9.65625 0,3.16556 1.52103,5.95832 3.875,7.71875 l -12.8125,26.4375 c -7.69703,15.83096 -14.0885,28.88655 -14.1875,29 -0.099,0.11345 -0.27178,0.11345 -0.375,0 -0.10322,-0.11345 -1.43094,-13.68347 -2.96875,-30.15625 -1.53781,-16.47277 -2.94105,-30.79146 -3.09375,-31.8125 l -0.0937,-0.8125 c 3.31386,-1.529 5.625,-4.86087 5.625,-8.75 0,-5.33146 -4.32479,-9.65625 -9.65625,-9.65625 z"
       id="path2928-8-6-3-8-6" />
    <path
       style="fill:none;stroke:#000000;stroke-width:1px;stroke-linecap:butt;stroke-linejoin:miter;stroke-opacity:1"
       d="m 500,439.41168 -12.35644,0 0,11.901 -18.35643,0 0,-11.901 -28.69307,0 0,23.26733 17.32673,17.82179 0,59.24752 -15.84158,15.34654 0,12.39604 -10.39604,0 0,12.42684 68.31683,0"
       id="path3948"
       sodipodi:nodetypes="cccccccccccccc" />
    <path
       style="fill:none;stroke:#000000;stroke-width:1px;stroke-linecap:butt;stroke-linejoin:miter;stroke-opacity:1"
       d="m 500,439.41168 12.35644,0 0,11.901 18.35643,0 0,-11.901 28.69307,0 0,23.26733 -17.32673,17.82179 0,59.24752 15.84158,15.34654 0,12.39604 10.39604,0 0,12.42684 -68.31683,0"
       id="path3948-0"
       sodipodi:nodetypes="cccccccccccccc" />
    <path
       style="fill:#000000;fill-opacity:1;stroke:none"
       d="m 31.035563,573.58815 0,-5.44555 5.19802,0 5.19802,0 0,-6.39828 0,-6.39828 7.91879,-7.58687 7.91878,-7.58686 0.002,-29.96289 0.002,-29.96288 -8.66337,-8.97961 -8.66337,-8.97961 0,-11.18127 0,-11.18127 13.61386,0 13.61387,0 0,5.9406 0,5.94059 9.90099,0 9.90099,0 0,-5.94059 0,-5.9406 11.63366,0 11.633657,0 0,5.9406 0,5.94059 9.90099,0 9.90099,0 0,-5.94059 0,-5.9406 13.61386,0 13.61387,0 0,11.26768 0,11.26769 -8.66337,8.65275 -8.66337,8.65276 0,30.28624 0,30.28623 7.92079,7.5535 7.9208,7.55349 0,6.34874 0,6.34874 5.19802,0 5.19802,0 0,5.44555 0,5.44554 -67.574257,0 -67.57426,0 0,-5.44554 z"
       id="path4016" />
    <path
       style="fill:#ffffff;fill-opacity:1;stroke:none"
       d="m 232.42576,573.07505 0,-5.44555 5.19802,0 5.19802,0 0,-6.39828 0,-6.39828 7.91879,-7.58687 7.91878,-7.58686 0.002,-29.96289 0.002,-29.96288 -8.66337,-8.97961 -8.66337,-8.97961 0,-11.18127 0,-11.18127 13.61386,0 13.61387,0 0,5.9406 0,5.94059 9.90099,0 9.90099,0 0,-5.94059 0,-5.9406 11.63366,0 11.63366,0 0,5.9406 0,5.94059 9.90099,0 9.90099,0 0,-5.94059 0,-5.9406 13.61386,0 13.61387,0 0,11.26768 0,11.26769 -8.66337,8.65275 -8.66337,8.65276 0,30.28624 0,30.28623 7.92079,7.5535 7.9208,7.55349 0,6.34874 0,6.34874 5.19802,0 5.19802,0 0,5.44555 0,5.44554 -67.57426,0 -67.57426,0 0,-5.44554 z"
       id="path4016-5" />
    <path
       style="fill:none;stroke:#000000;stroke-width:1px;stroke-linecap:butt;stroke-linejoin:miter;stroke-opacity:1"
       d="m 500,642.73842 c 0,0 -35.49032,22.83546 -48.0198,42.45545 -5.06312,7.92837 -7.92079,15.36634 -8.41584,35.16832 -0.49505,19.80198 18.81188,30.15841 18.81188,30.15841 L 450,766.85724 l 25.74257,0 c 0,0 -0.49505,10.39604 -7.92079,13.36633 -7.42574,2.9703 -14.35643,-1.48515 -22.77228,-1.48515 -8.41584,0 -20.79207,3.9604 -20.79207,3.9604 l 3.96039,8.91089 c 0,0 10.39604,-2.61386 16.33664,-2.61386 5.94059,0 11.38613,4.45545 18.31683,4.95049 6.93069,0.49505 16.83168,-2.97029 23.76238,-7.42574 C 491.64808,783.29705 500,773.64932 500,767.21367"
       id="path4040"
       sodipodi:nodetypes="csscccssccsssc" />
    <path
       style="fill:none;stroke:#000000;stroke-width:1px;stroke-linecap:butt;stroke-linejoin:miter;stroke-opacity:1"
       d="m 500,642.57623 c 0,0 35.49032,22.83546 48.0198,42.45545 5.06312,7.92837 7.92079,15.36634 8.41584,35.16832 0.49505,19.80198 -18.81188,30.15841 -18.81188,30.15841 L 550,766.69505 l -25.74257,0 c 0,0 0.49505,10.39604 7.92079,13.36633 7.42574,2.9703 14.35643,-1.48515 22.77228,-1.48515 8.41584,0 20.79207,3.9604 20.79207,3.9604 l -3.96039,8.91089 c 0,0 -10.39604,-2.61386 -16.33664,-2.61386 -5.94059,0 -11.38613,4.45545 -18.31683,4.95049 -6.93069,0.49505 -16.83168,-2.97029 -23.76238,-7.42574 C 508.35192,783.13486 500,773.48713 500,767.05148"
       id="path4040-0"
       sodipodi:nodetypes="csscccssccsssc" />
    <path
       style="fill:#ffffff;fill-opacity:1;stroke:none"
       d="M 297.0625 627.125 C 291.59433 627.125 287.15625 631.56308 287.15625 637.03125 C 287.15625 641.17749 289.69638 644.68168 293.3125 646.15625 L 287.1875 650.59375 C 264.41276 667.02042 250.04237 681.91518 245.46875 693.84375 C 241.99593 702.90128 240.32368 719.78833 242.15625 727.5625 C 243.3859 732.77897 246.45651 738.01127 251 742.65625 C 253.21199 744.91765 256.19555 747.49821 257.625 748.40625 C 259.05446 749.31429 260.21875 750.24071 260.21875 750.4375 C 260.21875 750.63428 257.66244 754.16117 254.53125 758.28125 C 251.40006 762.40133 248.84375 765.87014 248.84375 766 C 248.84375 766.12985 254.43952 766.25 261.28125 766.25 L 273.71875 766.25 L 273.40625 768.21875 C 272.42177 774.37535 269.73508 778.64208 265.71875 780.5 C 262.1342 782.15819 257.61153 782.20443 250.0625 780.625 C 245.57101 779.68528 243.77066 779.53141 239.6875 779.78125 C 235.34979 780.04666 223.55211 782.44789 222.78125 783.21875 C 222.50756 783.49244 224.89552 789.33641 225.625 790.1875 C 225.82968 790.42632 228.37696 790.15167 231.375 789.5625 C 240.11128 787.84566 243.4237 788.04432 251.0625 790.75 C 257.42325 793.003 257.54996 793.00794 262.6875 792.8125 C 267.21327 792.64033 268.52242 792.39371 272.78125 790.78125 C 275.47155 789.76267 279.16647 788.10679 280.96875 787.125 C 287.16782 783.74809 294.06021 775.55287 295.71875 769.59375 C 296.50856 766.75599 297.84276 765.65351 297.84375 767.84375 C 297.84434 769.51237 300.3939 774.50067 302.96875 777.90625 C 307.26219 783.58488 310.66026 786.15063 318.5625 789.53125 C 328.46836 793.76903 334.0631 793.95488 343.15625 790.4375 C 348.25286 788.46602 348.87964 788.3347 353.28125 788.375 C 355.86788 788.39873 360.31494 788.90489 363.15625 789.46875 C 365.99756 790.03261 368.35775 790.438 368.40625 790.375 C 368.6761 790.02482 371.10146 784.20513 371.21875 783.625 C 371.37343 782.85989 369.29862 782.1823 361.71875 780.5625 C 355.58554 779.25244 349.44174 779.25425 343.21875 780.5625 C 337.83957 781.69335 332.82348 781.86081 329.78125 781.03125 C 326.61618 780.16819 322.92373 776.04111 321.65625 771.9375 C 321.09301 770.11394 320.625 767.97565 320.625 767.1875 L 320.625 765.75 L 332.75 765.75 C 339.4208 765.75 344.875 765.61986 344.875 765.46875 C 344.875 765.31763 342.33168 761.83075 339.21875 757.71875 L 333.5625 750.25 L 336.875 747.90625 C 341.42603 744.71019 346.81171 738.81755 349.03125 734.59375 C 352.15889 728.64185 352.55365 726.81565 352.46875 718.46875 C 352.3047 702.33448 349.23489 691.69525 342.0625 682.25 C 335.14165 673.13601 322.68315 661.86684 306.71875 650.3125 L 300.9375 646.125 C 304.47723 644.61579 306.9375 641.12233 306.9375 637.03125 C 306.9375 631.56308 302.53067 627.125 297.0625 627.125 z "
       id="path4086" />
    <path
       style="fill:#000000;fill-opacity:1;stroke:none"
       d="m 95.613962,626.89693 c -5.46817,0 -9.90625,4.43808 -9.90625,9.90625 0,4.14624 2.54013,7.65043 6.15625,9.125 l -6.125,4.4375 c -22.77474,16.42667 -37.14513,31.32143 -41.71875,43.25 -3.47282,9.05753 -5.14507,25.94458 -3.3125,33.71875 1.22965,5.21647 4.30026,10.44877 8.84375,15.09375 2.21199,2.2614 5.19555,4.84196 6.625,5.75 1.42946,0.90804 2.59375,1.83446 2.59375,2.03125 0,0.19678 -2.55631,3.72367 -5.6875,7.84375 -3.13119,4.12008 -5.6875,7.58889 -5.6875,7.71875 0,0.12985 5.59577,0.25 12.4375,0.25 l 12.4375,0 -0.3125,1.96875 c -0.98448,6.1566 -3.67117,10.42333 -7.6875,12.28125 -3.58455,1.65819 -8.10722,1.70443 -15.65625,0.125 -4.49149,-0.93972 -6.29184,-1.09359 -10.375,-0.84375 -4.33771,0.26541 -16.13539,2.66664 -16.90625,3.4375 -0.27369,0.27369 2.11427,6.11766 2.84375,6.96875 0.20468,0.23882 2.75196,-0.0358 5.75,-0.625 8.73628,-1.71684 12.0487,-1.51818 19.6875,1.1875 6.36075,2.253 6.48746,2.25794 11.625,2.0625 4.52577,-0.17217 5.83492,-0.41879 10.09375,-2.03125 2.6903,-1.01858 6.38522,-2.67446 8.1875,-3.65625 6.19907,-3.37691 13.09146,-11.57213 14.75,-17.53125 0.78981,-2.83776 2.12401,-3.94024 2.125,-1.75 5.9e-4,1.66862 2.55015,6.65692 5.124998,10.0625 4.29344,5.67863 7.69151,8.24438 15.59375,11.625 9.90586,4.23778 15.5006,4.42363 24.59375,0.90625 5.09661,-1.97148 5.72339,-2.1028 10.125,-2.0625 2.58663,0.0237 7.03369,0.52989 9.875,1.09375 2.84131,0.56386 5.2015,0.96925 5.25,0.90625 0.26985,-0.35018 2.69521,-6.16987 2.8125,-6.75 0.15468,-0.76511 -1.92013,-1.4427 -9.5,-3.0625 -6.13321,-1.31006 -12.27701,-1.30825 -18.5,0 -5.37918,1.13085 -10.39527,1.29831 -13.4375,0.46875 -3.16507,-0.86306 -6.85752,-4.99014 -8.125,-9.09375 -0.56324,-1.82356 -1.03125,-3.96185 -1.03125,-4.75 l 0,-1.4375 12.125,0 c 6.6708,0 12.125,-0.13014 12.125,-0.28125 0,-0.15112 -2.54332,-3.638 -5.65625,-7.75 l -5.65625,-7.46875 3.3125,-2.34375 c 4.55103,-3.19606 9.93671,-9.0887 12.15625,-13.3125 3.12764,-5.9519 3.5224,-7.7781 3.4375,-16.125 -0.16405,-16.13427 -3.23386,-26.7735 -10.40625,-36.21875 -6.92085,-9.11399 -19.37935,-20.38316 -35.34375,-31.9375 l -5.781248,-4.1875 c 3.539728,-1.50921 5.999998,-5.00267 5.999998,-9.09375 0,-5.46817 -4.40683,-9.90625 -9.874998,-9.90625 z"
       id="path4086-4" />
    <path
       sodipodi:type="arc"
       style="fill:#000000;fill-opacity:1;stroke:none"
       id="path2928-8-6-8"
       sodipodi:cx="458.91089"
       sodipodi:cy="266.71863"
       sodipodi:rx="12.376238"
       sodipodi:ry="12.376238"
       d="m 471.28713,266.71863 a 12.376238,12.376238 0 1 1 -24.75248,0 12.376238,12.376238 0 1 1 24.75248,0 z"
       transform="matrix(1.4726194,0,0,1.4726194,-175.80108,451.83733)" />
    <path
       style="fill:none;stroke:#000000;stroke-width:1.44937444px;stroke-linecap:butt;stroke-linejoin:miter;stroke-opacity:1"
       d="m 499.99999,997.53501 -62.42356,0 0,-21.4967 c 0,0 15.06775,-7.86392 32.28805,-30.82432 17.22029,-22.96039 18.54051,-52.20618 18.54051,-52.20618 l -27.92558,0 c 0,0 0.30427,-16.37014 5.48819,-24.69967 10.4871,-14.95854 28.23489,-14.79219 28.23489,-14.79219 l 5.7975,-0.35876"
       id="path4155"
       sodipodi:nodetypes="csccscccc" />
    <path
       style="fill:none;stroke:#000000;stroke-width:1.44937444px;stroke-linecap:butt;stroke-linejoin:miter;stroke-opacity:1"
       d="m 499.99999,997.49349 62.42354,0 0,-21.49667 c 0,0 -15.06775,-7.86393 -32.28804,-30.82432 -17.22029,-22.96039 -18.54051,-52.20618 -18.54051,-52.20618 l 27.92558,0 c 0,0 -0.30428,-16.37015 -5.4882,-24.69968 -10.48709,-14.95853 -28.23488,-14.79218 -28.23488,-14.79218 l -5.79749,-0.35877"
       id="path4155-3"
       sodipodi:nodetypes="csccscccc" />
    <path
       style="fill:#ffffff;fill-opacity:1;stroke:none"
       d="m 301.46637,828.91731 c -10.06566,0 -18.25306,8.14211 -18.25306,18.20777 0,3.21819 0.84613,6.25325 2.30994,8.87741 -2.5927,0.86862 -5.04713,2.07442 -7.65451,3.62344 -4.02869,2.39343 -8.58163,6.93089 -10.19092,10.14562 -2.19012,4.37496 -3.85499,11.14989 -4.52929,18.57011 l -0.27176,3.2158 13.95023,0 13.95023,0 0,0.99644 c 0,4.4296 -2.09558,15.51991 -4.43871,23.50705 -5.14049,17.52263 -12.97115,30.09464 -28.44397,45.56471 -5.97905,5.97799 -14.16991,12.75423 -16.89428,13.99552 l -1.04173,0.45293 0,10.10037 0,10.10027 61.46253,0 61.41725,0 0,-10.05502 0,-10.05504 -2.12878,-1.31349 c -9.77623,-6.16739 -24.46026,-21.20149 -32.52033,-33.29032 -6.47928,-9.71791 -11.37099,-22.06803 -14.1767,-35.73614 -0.82942,-4.04063 -1.99289,-12.28264 -1.99289,-14.04081 0,-0.13117 6.26033,-0.22647 13.95023,-0.22647 l 13.99553,0 -0.31706,-3.89519 c -0.60341,-7.45791 -2.51455,-14.88491 -4.84634,-18.84188 -1.34402,-2.28073 -5.35683,-6.41317 -8.01686,-8.24331 -2.28468,-1.57192 -6.15925,-3.38357 -9.42093,-4.52929 1.4817,-2.63608 2.30994,-5.68345 2.30994,-8.92271 0,-10.06566 -8.1421,-18.20777 -18.20776,-18.20777 z"
       id="path4318" />
    <path
       style="fill:#000000;fill-opacity:1;stroke:none"
       d="m 98.699419,829.20654 c -10.06566,0 -18.253056,8.1421 -18.253056,18.20776 0,3.21819 0.84613,6.25326 2.309936,8.87742 -2.592694,0.86861 -5.047123,2.07442 -7.654504,3.62343 -4.028682,2.39343 -8.58163,6.9309 -10.190914,10.14562 -2.190121,4.37496 -3.855003,11.1499 -4.529295,18.57011 l -0.271758,3.21581 13.950229,0 13.950231,0 0,0.99644 c 0,4.42959 -2.095581,15.5199 -4.438711,23.50704 -5.140497,17.52263 -12.971148,30.09466 -28.443974,45.56471 -5.979046,5.97799 -14.169911,12.75423 -16.89427,13.99552 l -1.041738,0.45293 0,10.10034 0,10.10033 61.462538,0 61.417237,0 0,-10.05508 0,-10.055 -2.12876,-1.3135 c -9.77623,-6.16739 -24.46026,-21.20149 -32.52034,-33.29032 -6.47928,-9.71791 -11.37098,-22.06803 -14.17669,-35.73613 -0.82942,-4.04062 -1.9929,-12.28265 -1.9929,-14.04082 0,-0.13117 6.26033,-0.22646 13.95024,-0.22646 l 13.99552,0 -0.31705,-3.8952 c -0.60342,-7.4579 -2.51455,-14.8849 -4.84635,-18.84186 -1.34402,-2.28074 -5.35683,-6.41318 -8.01685,-8.24332 -2.2847,-1.57193 -6.15925,-3.38356 -9.42094,-4.5293 1.4817,-2.63607 2.30994,-5.68344 2.30994,-8.92271 0,-10.06566 -8.1421,-18.20776 -18.207771,-18.20776 z"
       id="path4318-5" />
    <path
       style="fill:none;stroke:#000000;stroke-width:1px;stroke-linecap:butt;stroke-linejoin:miter;stroke-opacity:1"
       d="m 693.44384,432.3897 18.29477,17.68494 c 0,0 24.39302,17.07511 37.19935,37.19935 12.80634,20.12424 9.14739,74.39871 9.14739,74.39871 l 13.41616,20.73407 -115.25702,0 40.24848,-29.88145 7.04913,-34.93058 -17.07511,14.80634 c 0,0 -7.04913,6.26878 -16.80634,7.48843 -10.30475,1.2881 -16.73407,1.21965 -22.83232,-4.26878 -6.09826,-5.48843 -15.24564,-18.90459 -15.24564,-18.90459 l 60.03168,-54.44499 1.82947,-29.88145 z"
       id="path4367"
       sodipodi:nodetypes="ccsccccccssccc" />
    <path
       style="fill:#000000;fill-opacity:1;stroke:none"
       d="m 673.73346,775.09231 c 8.01662,-5.95399 16.55182,-12.28172 18.96712,-14.06164 2.4153,-1.77991 4.52561,-3.70039 4.68956,-4.26775 0.87974,-3.04421 7.12415,-35.64518 6.87519,-35.89413 -0.16187,-0.16187 -3.54381,2.55549 -7.51542,6.03858 -15.62826,13.70591 -19.23021,15.77068 -29.55432,16.94166 -13.6289,1.54581 -18.09652,-0.77325 -28.97368,-15.03973 -3.87207,-5.07859 -5.18575,-7.23502 -4.7663,-7.82396 0.31848,-0.44716 12.7908,-11.84616 27.71628,-25.33112 14.92548,-13.48496 28.05752,-25.41271 29.18231,-26.50612 l 2.04507,-1.98802 0.82598,-12.73304 c 0.4543,-7.00317 0.83752,-13.39721 0.85161,-14.20898 0.0217,-1.2523 1.20377,-0.32534 7.80088,6.11743 4.27641,4.17636 11.47997,10.58383 16.00792,14.23882 14.50279,11.70676 27.11175,25.44323 31.76317,34.60348 2.47521,4.87455 4.52253,12.34736 6.0873,22.21895 1.12082,7.07085 1.38901,11.83706 1.64003,29.14599 l 0.3001,20.6928 4.5832,7.05426 c 2.52076,3.87984 5.23423,8.08333 6.02993,9.3411 l 1.44674,2.28685 -55.28917,0 -55.28917,0 14.57567,-10.82543 0,0 z"
       id="path4382" />
    <path
       style="fill:#ffffff;fill-opacity:1;stroke:none"
       d="m 672.08838,975.56144 c 8.01662,-5.95399 16.55182,-12.28172 18.96712,-14.06164 2.4153,-1.77991 4.52561,-3.70039 4.68956,-4.26775 0.87974,-3.04421 7.12415,-35.64518 6.87519,-35.89413 -0.16187,-0.16187 -3.54381,2.55549 -7.51542,6.03858 -15.62826,13.70591 -19.23021,15.77068 -29.55432,16.94166 -13.6289,1.54581 -18.09652,-0.77325 -28.97368,-15.03973 -3.87207,-5.07859 -5.18575,-7.23502 -4.7663,-7.82396 0.31848,-0.44716 12.7908,-11.84616 27.71628,-25.33112 14.92548,-13.48496 28.05752,-25.41271 29.18231,-26.50612 l 2.04507,-1.98802 0.82598,-12.73304 c 0.4543,-7.00317 0.83752,-13.39721 0.85161,-14.20898 0.0217,-1.2523 1.20377,-0.32534 7.80088,6.11743 4.27641,4.17636 11.47997,10.58383 16.00792,14.23882 14.50279,11.70676 27.11174,25.44323 31.76316,34.60348 2.47521,4.87455 4.52253,12.34736 6.0873,22.21895 1.12082,7.07085 1.38901,11.83706 1.64003,29.14599 l 0.3001,20.6928 4.5832,7.05426 c 2.52076,3.87984 5.23423,8.08333 6.02993,9.3411 l 1.44674,2.28685 -55.28916,0 -55.28917,0 14.57567,-10.82543 0,0 z"
       id="path4382-4" />
    <text
       xml:space="preserve"
       style="font-size:40px;font-style:normal;font-weight:normal;fill:#000000;fill-opacity:1;stroke:none;font-family:Bitstream Vera Sans"
       x="634.21851"
       y="103.47373"
       id="text4406"><tspan
         sodipodi:role="line"
         x="634.21851"
         y="103.47373"
         id="tspan4414"
         style="font-style:normal;font-variant:normal;font-weight:bold;font-stretch:normal;font-family:Cursor;-inkscape-font-specification:Cursor Medium">CHESS</tspan><tspan
         sodipodi:role="line"
         x="634.21851"
         y="153.47372"
         id="tspan4422"
         style="font-style:normal;font-variant:normal;font-weight:bold;font-stretch:normal;font-family:Cursor;-inkscape-font-specification:Cursor Medium">MATE</tspan><tspan
         sodipodi:role="line"
         x="634.21851"
         y="203.47372"
         id="tspan4424"
         style="font-style:normal;font-variant:normal;font-weight:bold;font-stretch:normal;font-family:Cursor;-inkscape-font-specification:Cursor Medium" /><tspan
         sodipodi:role="line"
         x="634.21851"
         y="253.47372"
         id="tspan4426"
         style="font-style:normal;font-variant:normal;font-weight:bold;font-stretch:normal;font-family:Cursor;-inkscape-font-specification:Cursor Medium">;</tspan><tspan
         sodipodi:role="line"
         x="634.21851"
         y="303.47372"
         id="tspan4428"
         style="font-style:normal;font-variant:normal;font-weight:bold;font-stretch:normal;font-family:Cursor;-inkscape-font-specification:Cursor Medium" /><tspan
         sodipodi:role="line"
         x="634.21851"
         y="353.47372"
         id="tspan4430"
         style="font-style:normal;font-variant:normal;font-weight:bold;font-stretch:normal;font-family:Cursor;-inkscape-font-specification:Cursor Medium">ICONS</tspan></text>
    <text
       xml:space="preserve"
       style="font-size:40px;font-style:normal;font-weight:normal;fill:#000000;fill-opacity:1;stroke:none;font-family:Bitstream Vera Sans"
       x="658.61151"
       y="225.43883"
       id="text4432"><tspan
         sodipodi:role="line"
         id="tspan4434"
         x="658.61151"
         y="225.43883"></tspan><tspan
         sodipodi:role="line"
         id="tspan4436" /></text>
  </g>
</svg>
